<svg xmlns="http://www.w3.org/2000/svg" xmlns:xlink="http://www.w3.org/1999/xlink" width="277" height="40.455" viewBox="0 0 277 40.455">
  <defs>
    <linearGradient id="linear-gradient" y1="0.5" x2="1" y2="0.5" gradientUnits="objectBoundingBox">
      <stop offset="0" stop-color="#5de9d2"/>
      <stop offset="0.174" stop-color="#56e3d5"/>
      <stop offset="0.423" stop-color="#43d4de"/>
      <stop offset="0.716" stop-color="#24bced"/>
      <stop offset="1" stop-color="#009fff"/>
    </linearGradient>
  </defs>
  <g id="invisible_logo_white" transform="translate(-405 -1159)">
    <path id="패스_19" data-name="패스 19" d="M344.745,460.044a9.923,9.923,0,0,0-13.82,2.437l-11.384,16.257.007.006a9.914,9.914,0,1,0,16.243,11.373l.007.006,11.384-16.258A9.923,9.923,0,0,0,344.745,460.044Z" transform="translate(98.638 704.621)" fill="url(#linear-gradient)"/>
    <path id="패스_20" data-name="패스 20" d="M332.748,478.744l.007-.006-11.383-16.257a9.923,9.923,0,0,0-16.258,11.383L316.5,490.122l.007-.006a9.914,9.914,0,1,0,16.243-11.373Z" transform="translate(101.681 704.621)" fill="url(#linear-gradient)"/>
    <circle id="타원_4" data-name="타원 4" cx="7.442" cy="7.442" r="7.442" transform="translate(407.482 1165.352)" fill="#fff"/>
    <path id="패스_21" data-name="패스 21" d="M375.369,459.2H387.1v34.947H375.369Z" transform="translate(86.491 704.798)" fill="#fff"/>
    <path id="패스_22" data-name="패스 22" d="M397.381,471.5h10.21v5.181a9.793,9.793,0,0,1,9.346-5.892,9.231,9.231,0,0,1,7.645,3.479q2.768,3.479,2.768,9.626v12.7H416.683V482.826a5.243,5.243,0,0,0-.939-3.352,3.173,3.173,0,0,0-2.616-1.168,4.226,4.226,0,0,0-2.387.788,5.733,5.733,0,0,0-1.905,2.26,7.39,7.39,0,0,0-.736,3.352v11.886H397.381Z" transform="translate(81.85 702.212)" fill="#fff"/>
    <path id="패스_23" data-name="패스 23" d="M437.48,471.239h11.784l3.911,15.238,3.809-15.238h9.3L458.2,496.687H445.861Z" transform="translate(73.396 702.761)" fill="#fff"/>
    <path id="패스_24" data-name="패스 24" d="M478.456,462.158a4.777,4.777,0,0,1-1.651-3.682,4.619,4.619,0,0,1,1.728-3.657,5.929,5.929,0,0,1,3.962-1.473,5.853,5.853,0,0,1,4.038,1.524,4.757,4.757,0,0,1-.025,7.315,5.994,5.994,0,0,1-4.013,1.473A5.785,5.785,0,0,1,478.456,462.158Zm1.042,28.42a10.978,10.978,0,0,1-2.387-7.466V467.466h10.768v15.187a2.435,2.435,0,0,0,.634,1.8,2.232,2.232,0,0,0,1.651.635,4.193,4.193,0,0,0,2.083-.609l.559,7.06a7.9,7.9,0,0,1-2.921,1.32,15.1,15.1,0,0,1-3.733.458A8.353,8.353,0,0,1,479.5,490.577Z" transform="translate(65.106 705.655)" fill="#fff"/>
    <path id="패스_25" data-name="패스 25" d="M499.942,495.424l1.168-6.045a20.868,20.868,0,0,0,7.111,1.321q2.539,0,2.54-1.422a1.35,1.35,0,0,0-.736-1.169,8.692,8.692,0,0,0-2.768-.813q-4.217-.812-6.07-2.742a8.116,8.116,0,0,1,1.346-11.632q3-2.133,8.178-2.133a27.122,27.122,0,0,1,4.546.33,13.123,13.123,0,0,1,3.479,1.092l-1.066,6.045a19.9,19.9,0,0,0-6.146-1.169,5.546,5.546,0,0,0-2.387.356,1.073,1.073,0,0,0-.661.964q0,1.119,2.54,1.575a13.934,13.934,0,0,1,6.908,2.844,7.034,7.034,0,0,1,2.285,5.537,7.738,7.738,0,0,1-2.819,6.324q-2.82,2.312-8.1,2.311A25.491,25.491,0,0,1,499.942,495.424Z" transform="translate(60.356 702.212)" fill="#fff"/>
    <path id="패스_26" data-name="패스 26" d="M531.684,462.158a4.777,4.777,0,0,1-1.651-3.682,4.619,4.619,0,0,1,1.727-3.657,5.929,5.929,0,0,1,3.962-1.473,5.855,5.855,0,0,1,4.038,1.524,4.757,4.757,0,0,1-.025,7.315,5.994,5.994,0,0,1-4.013,1.473A5.785,5.785,0,0,1,531.684,462.158Zm1.042,28.42a10.978,10.978,0,0,1-2.387-7.466V467.466h10.768v15.187a2.435,2.435,0,0,0,.635,1.8,2.233,2.233,0,0,0,1.652.635,4.2,4.2,0,0,0,2.082-.609l.559,7.06a7.9,7.9,0,0,1-2.921,1.32,15.1,15.1,0,0,1-3.734.458A8.353,8.353,0,0,1,532.726,490.577Z" transform="translate(53.884 705.655)" fill="#fff"/>
    <path id="패스_27" data-name="패스 27" d="M601.136,491.811a10.956,10.956,0,0,1-2.363-7.441V460.648l10.718-1.574v24.534a2.69,2.69,0,0,0,.686,2.057,3.552,3.552,0,0,0,2.413.635,5.517,5.517,0,0,0,2.488-.609l.356,7.111a16.6,16.6,0,0,1-7.62,1.727A8.372,8.372,0,0,1,601.136,491.811Z" transform="translate(39.392 704.926)" fill="#fff"/>
    <path id="패스_28" data-name="패스 28" d="M628.556,495.3a12.753,12.753,0,0,1-5.105-4.673,12.834,12.834,0,0,1,5.13-18.209,15.473,15.473,0,0,1,7.111-1.626,11.976,11.976,0,0,1,6.425,1.651,10.288,10.288,0,0,1,3.987,4.47,14.722,14.722,0,0,1,1.321,6.324,6.044,6.044,0,0,1-.1,1.321l-15.238,1.981a4.488,4.488,0,0,0,1.981,2.565,7.2,7.2,0,0,0,3.607.788,18.523,18.523,0,0,0,7.466-1.778l1.271,6.807A25.393,25.393,0,0,1,636.048,497,16.014,16.014,0,0,1,628.556,495.3Zm11-15.162q-.813-3.2-3.861-3.2a3.472,3.472,0,0,0-2.895,1.372,5.849,5.849,0,0,0-1.118,3.555Z" transform="translate(34.574 702.212)" fill="#fff"/>
    <path id="패스_29" data-name="패스 29" d="M564.938,489.4v4.724H554.169V460.648l10.769-1.574v14.375a8.7,8.7,0,0,1,3.3-3.911,9.407,9.407,0,0,1,4.927-1.219,12.208,12.208,0,0,1,10.794,6.4,13.668,13.668,0,0,1,1.651,6.7,13.253,13.253,0,0,1-1.7,6.654,12.764,12.764,0,0,1-4.572,4.724,11.672,11.672,0,0,1-6.12,1.727A8.475,8.475,0,0,1,564.938,489.4Zm8.584-4.419A4.958,4.958,0,0,0,575,481.423a5.046,5.046,0,0,0-8.585-3.632,4.644,4.644,0,0,0-1.473,3.429v.2a5.071,5.071,0,0,0,5.029,5.079A4.766,4.766,0,0,0,573.522,484.979Z" transform="translate(48.795 704.926)" fill="#fff"/>
  </g>
</svg>
