<svg xmlns="http://www.w3.org/2000/svg" width="88" height="88" viewBox="0 0 88 88">
    <defs>
        <style>
            .cls-1{fill:none}.cls-2{fill:#1f95ff}
        </style>
    </defs>
    <g id="best" transform="translate(-916 -596)">
        <path id="사각형_32" d="M0 0h88v88H0z" class="cls-1" data-name="사각형 32" transform="translate(916 596)"/>
        <path id="패스_6" d="M1234.357 150.625a2.659 2.659 0 0 1-.9-1.873q-.983-4.987-1.992-9.971c-.043-.215-.11-.426-.182-.7-2.084.368-4.14.724-6.194 1.1q-3.165.573-6.323 1.174a1.369 1.369 0 0 1-1.527-.5 1.339 1.339 0 0 1 .075-1.6q4.284-6.937 8.554-13.88c.22-.358.437-.718.712-1.171-.391-.141-.726-.273-1.069-.383-1.553-.5-1.766-.935-1.171-2.482.76-1.977 1.491-3.967 2.324-5.912a1.144 1.144 0 0 0-.387-1.525c-1.646-1.487-3.262-3.008-4.881-4.526-.9-.843-.9-1.49-.009-2.329a437.709 437.709 0 0 1 5.046-4.679.93.93 0 0 0 .29-1.22c-.854-2.1-1.666-4.217-2.478-6.334-.457-1.19-.172-1.764 1.044-2.145 2.211-.695 4.419-1.394 6.638-2.059a.9.9 0 0 0 .742-.937c.175-2.312.387-4.621.6-6.93.1-1.068.578-1.478 1.633-1.345q3.6.454 7.185.973a.856.856 0 0 0 1-.515c1.154-1.981 2.34-3.944 3.523-5.909.639-1.06 1.251-1.208 2.277-.539a424.296 424.296 0 0 1 5.863 3.879.838.838 0 0 0 1.114.008c1.919-1.3 3.861-2.569 5.8-3.841 1.11-.73 1.694-.6 2.384.551 1.168 1.943 2.341 3.885 3.482 5.846a.856.856 0 0 0 1 .518c2.119-.315 4.246-.588 6.368-.875.3-.04.593-.087.891-.111a1.247 1.247 0 0 1 1.551 1.284c.217 2.334.43 4.668.607 7.005a.9.9 0 0 0 .743.932c2.2.652 4.381 1.347 6.568 2.032 1.309.411 1.584.968 1.094 2.243-.813 2.117-1.624 4.234-2.473 6.337a.837.837 0 0 0 .251 1.1c1.7 1.544 3.371 3.111 5.046 4.679.962.9.961 1.531-.007 2.439a464.77 464.77 0 0 1-5.046 4.68.846.846 0 0 0-.242 1.1 448.96 448.96 0 0 1 2.444 6.268c.526 1.369.264 1.885-1.148 2.328-.328.1-.653.21-1.1.355l9.543 14.3v.9a2.082 2.082 0 0 1-2.181.716c-3.768-.368-7.541-.695-11.312-1.031-.264-.024-.531 0-.813 0-.761 3.762-1.522 7.467-2.248 11.179a1.8 1.8 0 0 1-.956 1.411h-.749a8.066 8.066 0 0 1-.961-1.007q-4.149-6.178-8.265-12.376c-.118-.177-.261-.337-.446-.572-.6 1-1.139 1.916-1.7 2.826-.646 1.051-1.244 1.179-2.286.5-1.96-1.285-3.923-2.565-5.867-3.871a.807.807 0 0 0-1.057 0 480.377 480.377 0 0 1-5.993 3.954 1.3 1.3 0 0 1-2.084-.445c-.191-.293-.36-.6-.541-.9-.4-.667-.808-1.333-1.25-2.062-.2.257-.323.408-.432.57q-4.13 6.191-8.265 12.378a7.923 7.923 0 0 1-.962 1.007zm-7.377-30.015c2.113.656 4.132 1.282 6.152 1.905 1.836.568 1.838.566 2.021 2.443.029.3.048.6.074.894l.484 5.479c.339-.036.605-.059.87-.1 2.1-.289 4.2-.565 6.3-.881a1.541 1.541 0 0 1 1.746.83c.368.651.76 1.287 1.147 1.928.834 1.383 1.67 2.765 2.528 4.184.263-.16.475-.281.678-.416 1.774-1.159 3.559-2.3 5.311-3.493a1.621 1.621 0 0 1 2.057.013c1.228.852 2.491 1.657 3.742 2.476.724.474 1.452.938 2.213 1.429.155-.246.276-.43.39-.618 1.081-1.794 2.183-3.575 3.229-5.389a1.682 1.682 0 0 1 1.983-.922c.955.178 1.923.288 2.886.418 1.349.183 2.7.357 4.115.544.21-2.383.432-4.686.6-6.993a1.614 1.614 0 0 1 1.274-1.614c2.006-.6 4-1.231 6-1.855.273-.085.538-.2.837-.313-.877-2.267-1.711-4.453-2.568-6.628a1.474 1.474 0 0 1 .41-1.814c1.6-1.465 3.179-2.953 4.763-4.434.157-.147.3-.313.5-.533-.266-.239-.493-.432-.71-.634-1.517-1.408-3.027-2.824-4.552-4.223a1.479 1.479 0 0 1-.414-1.816c.676-1.688 1.325-3.388 1.984-5.082.2-.5.39-1.01.607-1.574-.378-.131-.676-.244-.98-.338-1.879-.587-3.749-1.207-5.643-1.738a1.841 1.841 0 0 1-1.531-1.9c-.133-2.232-.372-4.459-.569-6.705a4.69 4.69 0 0 0-.572 0c-2.1.283-4.2.543-6.294.872a1.893 1.893 0 0 1-2.221-1.038c-1.01-1.8-2.111-3.558-3.178-5.332-.108-.18-.239-.348-.374-.544-2.042 1.343-4.027 2.633-6 3.948a1.55 1.55 0 0 1-1.933 0c-.778-.541-1.573-1.056-2.364-1.578-1.2-.79-2.406-1.574-3.649-2.387-.168.27-.3.476-.429.687-1.065 1.774-2.151 3.535-3.184 5.327a1.678 1.678 0 0 1-1.914.932c-1.329-.211-2.664-.376-4-.555a368.15 368.15 0 0 0-3.093-.4c-.21 2.39-.436 4.648-.591 6.908a1.7 1.7 0 0 1-1.364 1.707c-2.055.608-4.095 1.266-6.138 1.909-.2.063-.391.16-.613.251l2.5 6.483a1.469 1.469 0 0 1-.464 2.054q-2.267 2.122-4.556 4.219a4.008 4.008 0 0 1-.783.428c1.934 1.8 3.613 3.36 5.283 4.926.852.8.9 1.065.48 2.173-.803 2.129-1.62 4.241-2.483 6.479zm8.56 25.31a1.686 1.686 0 0 0 .236-.215c2.463-3.69 4.915-7.39 7.4-11.069.352-.521.073-.873-.2-1.188a1.119 1.119 0 0 0-.826-.371c-2.374.285-4.741.641-7.115.936-1.233.153-1.662-.207-1.775-1.422-.212-2.284-.42-4.568-.59-6.856a.878.878 0 0 0-.745-.937 19.388 19.388 0 0 1-2.212-.68c-.485-.183-.692-.021-.938.383-2.35 3.851-4.723 7.69-7.087 11.533-.231.374-.451.755-.762 1.28.428-.064.691-.1.95-.143q4.929-.891 9.855-1.786c1.17-.212 1.673.118 1.912 1.287.579 2.832 1.147 5.666 1.721 8.5.042.228.108.46.177.747zm54.057-9.61a1 1 0 0 0 0-.212q-3.927-5.922-7.871-11.831a.692.692 0 0 0-.6-.163c-.819.212-1.614.515-2.437.712-.541.129-.692.422-.732.94a457.298 457.298 0 0 1-.608 7.005 1.223 1.223 0 0 1-1.48 1.281 8.784 8.784 0 0 1-.745-.078c-2.148-.293-4.3-.582-6.443-.888-.469-.067-.825-.1-1.12.426a1.085 1.085 0 0 0 .027 1.339c2.385 3.533 4.739 7.089 7.1 10.637.09.136.206.255.378.467.078-.308.141-.516.183-.729.574-2.834 1.141-5.669 1.718-8.5.237-1.163.641-1.475 1.811-1.373 1.987.173 3.972.373 5.959.553 1.612.142 3.223.273 4.863.413z" class="cls-2" data-name="패스 6" transform="translate(-294.68 527.06)"/>
        <path id="패스_7" d="M1266.228 111.97a13.732 13.732 0 0 1 .161 2.757 3.662 3.662 0 0 1-3.815 3.11q-8.953.015-17.908.005h-.946c-.2 1.152-.992 1.336-1.992 1.321-2.576-.038-5.151-.01-7.728-.013-1.334 0-1.75-.412-1.751-1.733V98.972c0-1.25.411-1.669 1.646-1.671 2.651 0 5.3.019 7.952-.013a1.652 1.652 0 0 1 1.866 1.144 48.562 48.562 0 0 0 3.925-3.268 13.62 13.62 0 0 0 1.34-2.493 7.392 7.392 0 0 0 1.042-4.586c-.078-1.1-.021-2.207-.012-3.311.01-1.2.512-1.668 1.713-1.6a6.378 6.378 0 0 1 5.9 6.316c.037 1.7.006 3.407.006 5.2.316.015.577.038.837.038 2.625 0 5.251-.005 7.877.005a3.835 3.835 0 0 1 2.6 6.765.627.627 0 0 0-.2.824 3.783 3.783 0 0 1-1.022 4.318.854.854 0 0 0-.266.65c.613 2.233.353 3.191-1.225 4.68zm-13.676-25.955c0 1.5.024 2.923-.014 4.348a3.54 3.54 0 0 1-.293 1.37 106.34 106.34 0 0 1-2.189 4.443 3.64 3.64 0 0 1-.87 1.095q-2.469 2.058-4.992 4.043a1.291 1.291 0 0 0-.527 1.145c.017 4.015.009 8.032.011 12.047 0 .24.024.482.039.766H1262.055c1.294 0 1.884-.4 1.887-1.272s-.588-1.293-1.867-1.295h-3.152v-2.565h4.71c1 0 1.592-.48 1.6-1.272s-.575-1.287-1.576-1.292c-1.133-.005-2.267 0-3.439 0v-2.567h4.192c.247 0 .5.008.742 0a1.294 1.294 0 0 0 1.328-1.32 1.24 1.24 0 0 0-1.315-1.238c-1.229-.02-2.457-.005-3.709-.005v-2.539c.28-.014.52-.034.761-.034h3.938c1 0 1.591-.479 1.612-1.271s-.568-1.286-1.568-1.3H1256.835c-1.325 0-1.737-.415-1.741-1.745 0-1.958.016-3.916-.007-5.874a3.74 3.74 0 0 0-2.535-3.668zM1241.1 99.934h-6.273v16.594h6.273z" class="cls-2" data-name="패스 7" transform="translate(-290.65 529.342)"/>
    </g>
</svg>
