<svg xmlns="http://www.w3.org/2000/svg" width="183" height="231" viewBox="0 0 183 231">
    <defs>
        <style>
            .cls-1{fill:#fbe300}.cls-2,.cls-5{fill:#3b1e1e}.cls-2{font-size:18px;font-family:KakaoBold,Kakao;letter-spacing:-.05em}.cls-3{fill:#3c1e1e}.cls-4{fill:#fae100}.cls-5{font-size:13px;font-family:KakaoOTFBold,Kakao OTF;letter-spacing:-.06em}.cls-6{font-family:KakaoOTFRegular,Kakao OTF}.cls-7{filter:url(#사각형_4)}
        </style>
        <filter id="사각형_4" width="183" height="231" x="0" y="0" filterUnits="userSpaceOnUse">
            <feOffset dx="5" dy="5"/>
            <feGaussianBlur result="blur" stdDeviation="5.5"/>
            <feFlood flood-opacity=".188"/>
            <feComposite in2="blur" operator="in"/>
            <feComposite in="SourceGraphic"/>
        </filter>
    </defs>
    <g id="kakaotalk" transform="translate(-1634 -784.5)">
        <g class="cls-7" transform="translate(1634 784.5)">
            <rect id="사각형_4-2" width="150" height="198" class="cls-1" data-name="사각형 4" rx="6" transform="translate(11.5 11.5)"/>
        </g>
        <text id="인비저블_카카오톡_고객센터" class="cls-2" data-name="인비저블 카카오톡 고객센터" transform="translate(1720.5 828)">
            <tspan x="-28.818" y="0">인비저블</tspan><tspan x="-58.536" y="24">카카오톡 고객센터</tspan>
        </text>
        <path id="패스_1" d="M772.452 194.183c-16.32 0-29.55 10.453-29.55 23.345 0 8.289 5.47 15.57 13.714 19.712l-2.785 10.4a.848.848 0 0 0 1.328.938l11.98-8.086a37.6 37.6 0 0 0 5.313.377c16.319 0 29.55-10.451 29.55-23.345s-13.231-23.341-29.55-23.341z" class="cls-3" data-name="패스 1" transform="translate(947.598 676.817)"/>
        <path id="패스_2" d="M756.121 225.188a1.343 1.343 0 0 1-1.413-1.479v-10.265h-2.973a1.2 1.2 0 0 1-1.263-1.284 1.25 1.25 0 0 1 1.263-1.289h8.771a1.252 1.252 0 0 1 1.266 1.289 1.2 1.2 0 0 1-1.266 1.284h-2.971v10.265a1.343 1.343 0 0 1-1.414 1.479z" class="cls-4" data-name="패스 2" transform="translate(947.598 676.817)"/>
        <path id="패스_3" d="M775.452 225.029a1.4 1.4 0 0 1-1.478-1.564v-11.244a1.415 1.415 0 1 1 2.827 0v10.236h3.919a1.354 1.354 0 0 1 1.018.394 1.268 1.268 0 0 1 .333.944 1.289 1.289 0 0 1-1.351 1.234z" class="cls-4" data-name="패스 3" transform="translate(947.598 676.817)"/>
        <path id="패스_4" d="M784.706 225.188a1.311 1.311 0 0 1-1.415-1.351v-11.7a1.357 1.357 0 0 1 1.415-1.392 1.328 1.328 0 0 1 1.413 1.392v4.53l4.978-5.19a1.578 1.578 0 0 1 1.125-.517 1.3 1.3 0 0 1 1.351 1.3c0 .389-.232.645-.7 1.156-.1.116-.22.243-.346.386l-3.4 3.433 4.025 5.271a2.184 2.184 0 0 1 .685 1.568 1.3 1.3 0 0 1-1.41 1.109 2.042 2.042 0 0 1-.221-.011c-.522-.053-.816-.382-1.361-1.118l-3.71-5.054-1.016 1.036v3.805a1.353 1.353 0 0 1-1.413 1.347z" class="cls-4" data-name="패스 4" transform="translate(947.598 676.817)"/>
        <path id="패스_5" d="M771.211 225.189a1.316 1.316 0 0 1-1.379-.982l-.618-1.933h-5.906l-.633 1.911a1.292 1.292 0 0 1-1.36 1 1.337 1.337 0 0 1-1.391-1.307 1.658 1.658 0 0 1 .129-.621l4.1-10.868a2.321 2.321 0 0 1 2.1-1.647 2.215 2.215 0 0 1 2.105 1.643l3.977 10.852a2.359 2.359 0 0 1 .16.726 1.244 1.244 0 0 1-1.284 1.226zm-7.109-5.42h4.317l-2.133-6.433a.029.029 0 0 0-.055 0z" class="cls-4" data-name="패스 5" transform="translate(947.598 676.817)"/>
        <text id="상담_시간_월_금_09:00_18:00" class="cls-5" data-name="상담 시간 월 ~ 금 | 09:00 ~ 18:00" transform="translate(1720.5 953)">
            <tspan x="-21.528" y="0">상담 시간</tspan><tspan class="cls-6"><tspan x="-55.276" y="20">월 ~ 금 | 09:00 ~ 18:00</tspan></tspan>
        </text>
    </g>
</svg>
