<svg xmlns="http://www.w3.org/2000/svg" width="255" height="38.26" viewBox="0 0 255 38.26">
    <defs>
        <style>
            .cls-1{fill:#323232}.cls-2{fill:url(#linear-gradient)}.cls-3{fill:#fff}
        </style>
        <linearGradient id="linear-gradient" x2="1" y1=".5" y2=".5" gradientUnits="objectBoundingBox">
            <stop offset="0" stop-color="#5de9d2"/>
            <stop offset=".174" stop-color="#56e3d5"/>
            <stop offset=".423" stop-color="#43d4de"/>
            <stop offset=".716" stop-color="#24bced"/>
            <stop offset="1" stop-color="#009fff"/>
        </linearGradient>
    </defs>
    <g id="invisible_logo_gray" transform="translate(-405 -26.74)">
        <path id="패스_8" d="M375.369 459.2h11.164v33.252h-11.164z" class="cls-1" data-name="패스 8" transform="translate(75.169 -428.063)"/>
        <path id="패스_9" d="M397.381 471.465h9.719v4.93a9.318 9.318 0 0 1 8.893-5.606 8.783 8.783 0 0 1 7.274 3.311q2.633 3.31 2.634 9.159v12.081h-10.15v-13.1a4.989 4.989 0 0 0-.894-3.19 3.019 3.019 0 0 0-2.489-1.111 4.02 4.02 0 0 0-2.271.749 5.455 5.455 0 0 0-1.813 2.151 7.032 7.032 0 0 0-.7 3.19v11.311h-10.2z" class="cls-1" data-name="패스 9" transform="translate(69.686 -430.95)"/>
        <path id="패스_10" d="M437.48 471.239h11.212l3.721 14.5 3.625-14.5h8.845l-7.683 24.213h-11.746z" class="cls-1" data-name="패스 10" transform="translate(59.697 -431.062)"/>
        <path id="패스_11" d="M478.376 461.73a4.545 4.545 0 0 1-1.571-3.5 4.4 4.4 0 0 1 1.644-3.48 5.642 5.642 0 0 1 3.77-1.4 5.569 5.569 0 0 1 3.842 1.45 4.527 4.527 0 0 1-.024 6.96 5.7 5.7 0 0 1-3.818 1.4 5.5 5.5 0 0 1-3.843-1.43zm.991 27.041a10.446 10.446 0 0 1-2.271-7.1v-14.89h10.246v14.45a2.317 2.317 0 0 0 .6 1.716 2.123 2.123 0 0 0 1.571.6 3.99 3.99 0 0 0 1.982-.58l.532 6.718a7.522 7.522 0 0 1-2.779 1.256 14.367 14.367 0 0 1-3.552.436 7.948 7.948 0 0 1-6.329-2.606z" class="cls-1" data-name="패스 11" transform="translate(49.901 -426.604)"/>
        <path id="패스_12" d="M499.913 494.229l1.111-5.752a19.856 19.856 0 0 0 6.766 1.257q2.416 0 2.416-1.353a1.284 1.284 0 0 0-.7-1.112 8.27 8.27 0 0 0-2.634-.773q-4.012-.773-5.775-2.609a7.723 7.723 0 0 1 1.28-11.068 13.2 13.2 0 0 1 7.781-2.03 25.807 25.807 0 0 1 4.326.314 12.487 12.487 0 0 1 3.31 1.039l-1.014 5.752a18.932 18.932 0 0 0-5.848-1.112 5.277 5.277 0 0 0-2.271.339 1.021 1.021 0 0 0-.629.918q0 1.064 2.416 1.5a13.258 13.258 0 0 1 6.573 2.706 6.693 6.693 0 0 1 2.175 5.268 7.363 7.363 0 0 1-2.682 6.017q-2.683 2.2-7.709 2.2a24.254 24.254 0 0 1-8.892-1.501z" class="cls-1" data-name="패스 12" transform="translate(44.289 -430.95)"/>
        <path id="패스_13" d="M531.6 461.73a4.545 4.545 0 0 1-1.571-3.5 4.4 4.4 0 0 1 1.644-3.48 5.642 5.642 0 0 1 3.77-1.4 5.571 5.571 0 0 1 3.842 1.45 4.527 4.527 0 0 1-.024 6.96 5.7 5.7 0 0 1-3.818 1.4 5.5 5.5 0 0 1-3.843-1.43zm.991 27.041a10.446 10.446 0 0 1-2.272-7.1v-14.89h10.251v14.45a2.317 2.317 0 0 0 .6 1.716 2.125 2.125 0 0 0 1.572.6 3.991 3.991 0 0 0 1.981-.58l.532 6.718a7.522 7.522 0 0 1-2.779 1.256 14.369 14.369 0 0 1-3.552.436 7.947 7.947 0 0 1-6.324-2.606z" class="cls-1" data-name="패스 13" transform="translate(36.641 -426.604)"/>
        <path id="패스_14" d="M564.416 487.927v4.495h-10.247v-31.85l10.247-1.5v13.678a8.28 8.28 0 0 1 3.141-3.721 8.95 8.95 0 0 1 4.688-1.16 11.616 11.616 0 0 1 10.271 6.09 13.005 13.005 0 0 1 1.571 6.38 12.61 12.61 0 0 1-1.619 6.332 12.145 12.145 0 0 1-4.351 4.495 11.107 11.107 0 0 1-5.823 1.643 8.064 8.064 0 0 1-7.878-4.882zm8.167-4.2a4.718 4.718 0 0 0 1.4-3.384 4.8 4.8 0 0 0-8.168-3.456 4.419 4.419 0 0 0-1.4 3.263v.193a4.825 4.825 0 0 0 4.785 4.833 4.534 4.534 0 0 0 3.383-1.453z" class="cls-1" data-name="패스 14" transform="translate(30.629 -428.032)"/>
        <path id="패스_15" d="M601.021 490.223a10.425 10.425 0 0 1-2.248-7.08v-22.57l10.2-1.5v23.344a2.559 2.559 0 0 0 .653 1.957 3.379 3.379 0 0 0 2.3.6 5.249 5.249 0 0 0 2.368-.58l.339 6.766a15.792 15.792 0 0 1-7.25 1.643 7.966 7.966 0 0 1-6.362-2.58z" class="cls-1" data-name="패스 15" transform="translate(19.518 -428.032)"/>
        <path id="패스_16" d="M628.219 494.108a12.134 12.134 0 0 1-4.858-4.447 12.211 12.211 0 0 1 4.882-17.326 14.722 14.722 0 0 1 6.766-1.547 11.4 11.4 0 0 1 6.114 1.571 9.789 9.789 0 0 1 3.794 4.253 14.008 14.008 0 0 1 1.257 6.017 5.751 5.751 0 0 1-.1 1.257l-14.5 1.885a4.27 4.27 0 0 0 1.885 2.44 6.852 6.852 0 0 0 3.432.749 17.624 17.624 0 0 0 7.1-1.692l1.209 6.476a24.162 24.162 0 0 1-9.859 1.982 15.237 15.237 0 0 1-7.122-1.618zm10.464-14.427a3.536 3.536 0 0 0-3.673-3.045 3.3 3.3 0 0 0-2.754 1.305 5.565 5.565 0 0 0-1.064 3.383z" class="cls-1" data-name="패스 16" transform="translate(13.826 -430.727)"/>
        <path id="패스_17" d="M343.435 459.957a9.441 9.441 0 0 0-13.15 2.319l-10.832 15.468.007.005a9.433 9.433 0 1 0 15.455 10.821l.007.005 10.832-15.469a9.442 9.442 0 0 0-2.319-13.149z" class="cls-2" data-name="패스 17" transform="translate(98.086 -427.826)"/>
        <path id="패스_18" d="M331.321 477.75l.007-.005-10.828-15.469a9.442 9.442 0 0 0-15.469 10.831l10.832 15.469.007-.005a9.433 9.433 0 1 0 15.455-10.821z" class="cls-2" data-name="패스 18" transform="translate(101.681 -427.826)"/>
        <circle id="타원_3" cx="7.081" cy="7.081" r="7.081" class="cls-3" data-name="타원 3" transform="translate(407.361 32.784)"/>
    </g>
</svg>
