<svg xmlns="http://www.w3.org/2000/svg" width="65" height="65" viewBox="0 0 65 65">
    <defs>
        <style>
            .cls-1{fill:#1f95ff}
        </style>
    </defs>
    <path id="profile" d="M446.16 182.533h-3.808c-.2-.038-.408-.084-.614-.114-1.463-.214-2.948-.326-4.385-.653a31.856 31.856 0 0 1-19.906-13.436 32.5 32.5 0 0 1 25.908-50.779 30.938 30.938 0 0 1 16 3.74 32.172 32.172 0 0 1 16.87 22.961c.248 1.236.353 2.5.524 3.752v4.062c-.127.981-.228 1.966-.386 2.942a32.561 32.561 0 0 1-26.692 27.064c-1.164.2-2.341.31-3.511.461zm-22.172-10.042c.562-.32.96-.554 1.365-.776q4.395-2.407 8.793-4.807a2.787 2.787 0 0 0 1.605-2.725c-.027-.867.02-1.735-.018-2.6a1.841 1.841 0 0 0-.288-.927 23.037 23.037 0 0 1-3.261-6.77 1.583 1.583 0 0 0-.378-.637 4.407 4.407 0 0 1-1.306-3.2v-4a4.461 4.461 0 0 1 .805-2.562 1.548 1.548 0 0 0 .238-.815q.022-2.761-.01-5.522a9.133 9.133 0 0 1 6.16-9.068 19.57 19.57 0 0 1 11.919-.4c4.813 1.259 7.463 4.9 7.349 9.851a130.194 130.194 0 0 0 0 5.077 3.545 3.545 0 0 0 .3.991 9.192 9.192 0 0 1 .693 2.137 45.744 45.744 0 0 1 .021 4.693 4.218 4.218 0 0 1-2.021 3.415 2.038 2.038 0 0 0-.608.748 28.356 28.356 0 0 1-2.165 4.285 7.54 7.54 0 0 0-1.492 5.289 3.152 3.152 0 0 0 1.865 2.959c3.469 1.712 6.912 3.476 10.354 5.242.335.172.487.046.7-.151a30.024 30.024 0 0 0 4.619-5.379 30.067 30.067 0 0 0-5.6-39.84 28.8 28.8 0 0 0-19.488-7.072 30.185 30.185 0 0 0-29.766 33.958A28.741 28.741 0 0 0 420 167.85c1.225 1.631 2.659 3.105 3.989 4.641z" class="cls-1" transform="translate(-411.747 -117.533)"/>
</svg>
